<?xml version="1.0" encoding="utf-8"?>
<svg version="1.1" xmlns="http://www.w3.org/2000/svg" width="32" height="32" viewBox="0 0 32 32">
    <!-- Rounded white background (radius 4px for subtle rounding) -->
    <rect x="0" y="0" width="32" height="32" rx="4" ry="4" fill="#ffffff"/>
    
    <!-- TechHarbor Logo Icon (scaled to fit with padding) -->
    <g transform="translate(4, 4) scale(0.048)">
        <!-- Outer arc 1 (Dark Blue) -->
        <path fill="#011a4e" d="M308.25 488.45c-1.35-.25-5.2-.65-8.5-.9-3.3-.25-6.8-.7-7.75-1-.95-.3-2.9-.55-4.3-.55-1.4 0-3.55-.35-4.7-.75-1.15-.4-3.3-.75-4.75-.75-1.4 0-3.7-.35-5.05-.75-1.35-.4-3.1-.75-3.95-.75-.8 0-2.15-.35-2.95-.75-.75-.4-2.05-.75-2.85-.75-.8 0-2.3-.3-3.3-.7-3.75-1.4-7.1-2.3-8.5-2.3-.8 0-1.9-.35-2.45-.75-.95-.65-3.25-1.35-6.7-2.1-.7-.1-1.95-.55-2.85-.95-.85-.4-1.8-.7-2.15-.7-.5 0-2.55-.85-6.75-2.75-3.3-1.5-6.25-2.75-6.5-2.75-.15 0-1.2-.45-2.4-.95-1.15-.5-5-2.2-8.6-3.7-7.7-3.3-16.8-7.95-20.35-10.4-.7-.55-1.45-.95-1.6-.95-.6 0-10.9-6.35-16.05-9.95-3-2.1-5.95-4.15-6.55-4.55-1.4-.95-6.2-4.5-9.75-7.15-2.75-2.05-4.45-3.45-10.35-8.55-6.3-5.45-27.4-26.85-29.55-29.95-.4-.6-1.8-2.35-3.1-3.85-1.3-1.5-3.65-4.65-5.2-7-1.6-2.35-3.95-5.45-5.3-6.9-1.35-1.45-2.7-3.15-3.05-3.8-.35-.65-2.2-3.4-4.1-6.15-1.85-2.7-3.55-5.25-3.7-5.65-.15-.4-.75-1.4-1.4-2.25-1.15-1.65-10.7-17.5-10.7-17.9 0-.1-.9-1.85-2.05-3.9-1.1-2.05-2.5-4.8-3-6.2-.55-1.35-1.3-3.15-1.7-4-.65-1.45-3.15-7-4.5-10-.4-.8-1.05-2.4-1.5-3.5-.45-1.1-1.15-2.6-1.55-3.35-.35-.7-.7-1.75-.7-2.25 0-.5-.25-1.2-.55-1.5-.3-.3-.75-1.45-.95-2.5-.4-1.95-1.15-4.25-2.35-7-.35-.85-.65-2.25-.65-3.05 0-.85-.2-1.65-.45-1.85-.3-.15-.65-1.35-.85-2.65-.15-1.3-.55-2.6-.8-2.95-.25-.3-.65-1.65-.9-3-.25-1.3-.8-3.95-1.25-5.9-.45-1.9-1.05-4.85-1.35-6.5-.3-1.65-.85-3.85-1.2-4.9-.4-1-.7-2.85-.7-4.1 0-1.2-.2-2.3-.45-2.45-.25-.15-.6-1.95-.8-3.9-.2-2-.65-4.9-1.05-6.4-.4-1.5-.7-5.2-.7-8.25 0-3-.25-6.4-.55-7.5-.3-1.1-.75-4.8-1.05-8.25-.5-6.8 0-10.15 1.65-11 1.2-.65 32.25-.65 33.45 0 .5.25 1.15 1.2 1.5 2.1.8 2.1 1.85 10.3 2.45 18.75.25 3.6.7 7.05 1 7.6.3.55.55 1.85.55 2.9 0 1.05.35 3.25.75 4.8.4 1.6.75 3.8.75 4.9 0 1.1.35 2.8.75 3.8.4.95.75 2.65.75 3.75 0 1.1.3 2.7.7 3.55 1.1 2.5 1.9 5.8 2.25 9.5.15 1.85.55 3.55.9 3.75.3.2.7 1.2.9 2.25.2 1 .55 2 .8 2.15.25.15.45 1 .45 1.85 0 .9.3 2.2.7 2.95.4.75.85 2.05 1.05 2.95.2.95.55 2 .8 2.45.7 1.3 1.85 4.2 2.2 5.5.45 1.65.75 2.35 7.5 16.25 9.55 19.55 17.25 31.8 30 47.45 2.2 2.7 4.7 5.85 5.55 7 3 3.95 24.2 25.1 27.55 27.45 6.1 4.3 8.9 6.4 10.4 7.8 3.45 3.2 17.8 12.7 25.75 17 3.15 1.7 6.1 3.3 6.5 3.55 8.2 4.75 38.65 17 42.25 17 .6 0 3.05.7 5.4 1.5 2.55.9 5.35 1.5 6.85 1.5 1.6 0 3.5.45 5.35 1.3 1.75.75 4.5 1.45 6.9 1.7 2.2.25 4.9.7 6 .95 3.25.8 9.6 1.6 15.8 2 3.2.25 6.1.6 6.5.85.35.2 3.55.55 7 .7 4.25.15 6.6.5 7.15.95.7.6.8 2.55.8 18 0 12.85-.15 17.5-.6 17.95-.7.7-15.65.75-19.65.05z"/>
        <!-- Outer arc 2 (Dark Blue) -->
        <path fill="#011a4e" d="M314 408.4c-1.8-.2-5.95-.6-9.25-.85-3.3-.25-7-.7-8.25-1-4.9-1.3-6.85-1.7-9-1.9-1.25-.1-3.5-.55-5-.95-1.5-.45-4-1.15-5.5-1.55-1.5-.4-3.75-1.05-5-1.45-1.25-.4-2.7-.7-3.25-.7-.55 0-1.65-.35-2.45-.75-.75-.4-1.75-.75-2.1-.75-.4 0-1.55-.45-2.55-1-1.05-.55-2.25-1-2.75-1-.45 0-1-.2-1.15-.5-.15-.25-.65-.5-1.1-.5-.9 0-4.65-1.7-15.8-7.3-9.3-4.65-11.9-6.1-15.6-8.65-3.6-2.5-4.6-3.15-8.5-5.75-4.9-3.25-7.1-4.95-10.05-7.7-1.35-1.3-3.3-2.9-4.25-3.6-3.3-2.35-10.95-9.4-14.7-13.5-1.6-1.8-4.1-4.5-5.55-6-1.45-1.5-3.5-3.85-4.55-5.2-1.05-1.35-2.9-3.6-4.15-5.05-3.4-3.95-10.05-13-10.85-14.75-.2-.4-.8-1.4-1.4-2.25-.6-.8-1.4-2.2-1.7-3.1-.35-.9-1-1.9-1.4-2.25-.4-.35-1.45-2.1-2.25-3.9-1.4-3.05-2.65-5.65-4.55-9.25-.95-1.8-3.75-7.85-4.75-10.25-.4-.95-1.05-2.4-1.4-3.15-.4-.8-.7-1.8-.7-2.25 0-.45-.35-1.3-.75-1.8-.4-.55-.75-1.6-.75-2.3 0-.7-.2-1.5-.45-1.8-.3-.25-.7-1.35-1-2.45-.3-1.1-.85-3.1-1.25-4.5-.45-1.35-1.05-3.5-1.35-4.75-.3-1.25-.9-3-1.25-3.9-.4-.9-.7-2.3-.7-3.05 0-.8-.35-2.1-.75-2.85-.4-.8-.75-2.1-.75-2.95 0-.8-.35-2.4-.75-3.5-.4-1.1-.7-3.5-.75-5.3 0-1.85-.35-4.15-.75-5.1-.45-1.05-.75-3.4-.75-5.45-.05-2-.35-5.1-.75-6.9-.8-3.8-.65-25.9.2-29.25.3-1.1.55-4 .55-6.5.05-2.55.35-5.35.75-6.5.4-1.1.75-3.25.75-4.8 0-1.55.35-3.9.75-5.25.4-1.35.75-3.15.75-4.05 0-.9.3-2.35.7-3.25.35-.9.95-2.65 1.25-3.9 1.15-4.4 2.1-8.3 2.55-10.5.3-1.2.75-2.45 1-2.7.3-.3.5-.9.5-1.35 0-.95 1.4-5.4 3-9.45.6-1.5 1.2-3.25 1.35-3.85.15-.6.55-1.4.95-1.7.4-.3.7-.95.7-1.45 0-.5.7-2.25 1.5-3.9.85-1.7 1.5-3.2 1.5-3.35 0-.5 7.1-12.85 10.6-18.5 1.9-3 3.7-5.95 4.05-6.45 2.15-3.5 10.95-15.15 15.15-20.1 2.8-3.35 14.85-15.5 17.5-17.65.8-.7 2.9-2.5 4.7-4.05 5.1-4.45 17.65-13.2 22.75-15.95 1.1-.6 3.15-1.8 4.5-2.65 3.8-2.4 19.15-10.05 22.25-11.1 1.5-.5 3.9-1.45 5.25-2.05 1.4-.6 3.2-1.25 4-1.45.85-.2 2.2-.65 3-1.05.85-.35 2.5-.9 3.75-1.25 1.25-.35 3.15-1 4.25-1.5 2.35-1 7.3-2.5 8.35-2.5 1.05 0 7.55-2.05 8.15-2.55.25-.25 1.6-.45 3.05-.45 1.4 0 3.55-.35 4.7-.75 1.15-.4 2.9-.75 3.85-.75.95 0 2.35-.35 3.1-.7 1.05-.55 4.05-.8 11.55-1 5.6-.15 10.8-.1 11.55.05 1.05.2 1.7.85 2.5 2.5 1 2.1 1.05 2.65.75 11.05-.5 12.85-1.05 21.25-1.45 22.15-.75 1.5-2.8 1.95-9 1.95-4.05 0-6.8.25-8.1.75-1.1.4-3.25.7-4.8.75-1.55 0-3.8.35-4.95.75-1.15.4-2.85.75-3.7.75-.9 0-2.05.35-2.6.75-.5.4-1.85.75-2.95.75-1.1 0-2.55.35-3.25.75-.7.4-1.8.7-2.5.75-.75 0-1.55.25-1.85.55-.3.3-1.3.7-2.2.95-3.05.75-5.2 1.6-11.5 4.5-1.85.8-3.8 1.5-4.35 1.5-.55 0-1.25.35-1.6.75-.35.4-1 .75-1.45.75-.45 0-1.05.2-1.3.45-.3.25-2.95 1.7-5.95 3.3-3 1.55-6.3 3.4-7.35 4.05-1.05.65-2.05 1.2-2.15 1.2-.15 0-1.7 1-3.5 2.25-1.85 1.25-3.5 2.25-3.7 2.25-.25 0-.9.45-1.5 1.05-.6.55-2.45 1.95-4.05 3.1-5.85 4.15-10.4 7.85-14.5 11.8-2.3 2.25-4.35 4.05-4.55 4.05-.65 0-11.3 12.9-15.05 18.25-1.15 1.65-2.55 3.3-3.05 3.65-.5.35-.9.9-.9 1.15 0 .25-1.65 3.25-3.65 6.6-3.65 6.1-7.35 13.3-7.35 14.3 0 .3-.2.55-.5.55-.25 0-.5.4-.5.9 0 .5-.35 1.35-.75 1.9-.4.5-.75 1.3-.75 1.7 0 .4-.45 1.6-1 2.65-.55 1-1 2.15-1 2.55 0 .4-.3 1.35-.7 2.15-1.55 3.1-2.3 5.25-2.3 6.55 0 .75-.35 1.8-.75 2.3-.4.55-.75 1.7-.75 2.55 0 .85-.2 1.75-.45 2-.5.55-1.3 3.35-2.15 7.5-.25 1.4-.75 3.65-1.15 5-1.3 4.95-1.85 7.85-2.25 12.15-.25 2.4-.7 6.85-1 9.85-.65 6.05-.4 18.5.45 24 .55 3.5 1.35 8.55 2 12.75.2 1.25.65 2.75.95 3.35.35.6.6 1.85.6 2.85 0 .95.25 2.35.55 3.15.3.75.75 2.2.95 3.15.25.95.65 2.45.9 3.25.3.85.9 2.85 1.35 4.5.45 1.65 1.15 3.75 1.55 4.65.4.9.7 2.05.7 2.5 0 .5.35 1.35.75 1.9.4.5.75 1.5.75 2.1 0 .65.3 1.8.7 2.5.35.75 2.2 4.45 4.1 8.25 4.4 8.8 5.6 11.1 7.45 13.8.85 1.2 2 2.95 2.55 3.9.6 1 1.3 1.9 1.55 2.1.25.15 1.3 1.55 2.3 3.05 1 1.5 2.95 4.1 4.3 5.75 1.4 1.65 3.75 4.6 5.2 6.5 2.9 3.75 18.45 19.25 19.3 19.25.3 0 1.4.75 2.4 1.7 1.05.9 2.8 2.25 3.9 3 1.1.75 3.35 2.35 5 3.55 7.75 5.75 24.25 14.5 33 17.5 2.2.8 6.45 2.3 9.5 3.35 3 1.05 6.1 1.9 6.9 1.9.8 0 1.9.25 2.45.55.55.3 3.55.85 6.6 1.25 10 1.25 11.55 1.5 12.65 2.1.6.35 2.95.6 5.25.65 5.55 0 12.55 1.8 12.8 3.2.1.55.55 1.75.95 2.65.65 1.35.7 3.7.5 15-.2 9.6-.45 14-1 15.6l-.7 2.25-5.45.05c-3 .05-6.9-.15-8.7-.4z"/>
        <!-- Outer arc 3 (Dark Blue) -->
        <path fill="#011a4e" d="M314 408.4c-1.8-.2-5.95-.6-9.25-.85-3.3-.25-7-.7-8.25-1-4.9-1.3-6.85-1.7-9-1.9-1.25-.1-3.5-.55-5-.95-1.5-.45-4-1.15-5.5-1.55-1.5-.4-3.75-1.05-5-1.45-1.25-.4-2.7-.7-3.25-.7-.55 0-1.65-.35-2.45-.75-.75-.4-1.75-.75-2.1-.75-.4 0-1.55-.45-2.55-1-1.05-.55-2.25-1-2.75-1-.45 0-1-.2-1.15-.5-.15-.25-.65-.5-1.1-.5-.9 0-4.65-1.7-15.8-7.3-9.3-4.65-11.9-6.1-15.6-8.65-3.6-2.5-4.6-3.15-8.5-5.75-4.9-3.25-7.1-4.95-10.05-7.7-1.35-1.3-3.3-2.9-4.25-3.6-3.3-2.35-10.95-9.4-14.7-13.5-1.6-1.8-4.1-4.5-5.55-6-1.45-1.5-3.5-3.85-4.55-5.2-1.05-1.35-2.9-3.6-4.15-5.05-3.4-3.95-10.05-13-10.85-14.75-.2-.4-.8-1.4-1.4-2.25-.6-.8-1.4-2.2-1.7-3.1-.35-.9-1-1.9-1.4-2.25-.4-.35-1.45-2.1-2.25-3.9-1.4-3.05-2.65-5.65-4.55-9.25-.95-1.8-3.75-7.85-4.75-10.25-.4-.95-1.05-2.4-1.4-3.15-.4-.8-.7-1.8-.7-2.25 0-.45-.35-1.3-.75-1.8-.4-.55-.75-1.6-.75-2.3 0-.7-.2-1.5-.45-1.8-.3-.25-.7-1.35-1-2.45-.3-1.1-.85-3.1-1.25-4.5-.45-1.35-1.05-3.5-1.35-4.75-.3-1.25-.9-3-1.25-3.9-.4-.9-.7-2.3-.7-3.05 0-.8-.35-2.1-.75-2.85-.4-.8-.75-2.1-.75-2.95 0-.8-.35-2.4-.75-3.5-.4-1.1-.7-3.5-.75-5.3 0-1.85-.35-4.15-.75-5.1-.45-1.05-.75-3.4-.75-5.45-.05-2-.35-5.1-.75-6.9-.8-3.8-.65-25.9.2-29.25.3-1.1.55-4 .55-6.5.05-2.55.35-5.35.75-6.5.4-1.1.75-3.25.75-4.8 0-1.55.35-3.9.75-5.25.4-1.35.75-3.15.75-4.05 0-.9.3-2.35.7-3.25.35-.9.95-2.65 1.25-3.9 1.15-4.4 2.1-8.3 2.55-10.5.3-1.2.75-2.45 1-2.7.3-.3.5-.9.5-1.35 0-.95 1.4-5.4 3-9.45.6-1.5 1.2-3.25 1.35-3.85.15-.6.55-1.4.95-1.7.4-.3.7-.95.7-1.45 0-.5.7-2.25 1.5-3.9.85-1.7 1.5-3.2 1.5-3.35 0-.5 7.1-12.85 10.6-18.5 1.9-3 3.7-5.95 4.05-6.45 2.15-3.5 10.95-15.15 15.15-20.1 2.8-3.35 14.85-15.5 17.5-17.65.8-.7 2.9-2.5 4.7-4.05 5.1-4.45 17.65-13.2 22.75-15.95 1.1-.6 3.15-1.8 4.5-2.65 3.8-2.4 19.15-10.05 22.25-11.1 1.5-.5 3.9-1.45 5.25-2.05 1.4-.6 3.2-1.25 4-1.45.85-.2 2.2-.65 3-1.05.85-.35 2.5-.9 3.75-1.25 1.25-.35 3.15-1 4.25-1.5 2.35-1 7.3-2.5 8.35-2.5 1.05 0 7.55-2.05 8.15-2.55.25-.25 1.6-.45 3.05-.45 1.4 0 3.55-.35 4.7-.75 1.15-.4 2.9-.75 3.85-.75.95 0 2.35-.35 3.1-.7 1.05-.55 4.05-.8 11.55-1 5.6-.15 10.8-.1 11.55.05 1.05.2 1.7.85 2.5 2.5 1 2.1 1.05 2.65.75 11.05-.5 12.85-1.05 21.25-1.45 22.15-.75 1.5-2.8 1.95-9 1.95-4.05 0-6.8.25-8.1.75-1.1.4-3.25.7-4.8.75-1.55 0-3.8.35-4.95.75-1.15.4-2.85.75-3.7.75-.9 0-2.05.35-2.6.75-.5.4-1.85.75-2.95.75-1.1 0-2.55.35-3.25.75-.7.4-1.8.7-2.5.75-.75 0-1.55.25-1.85.55-.3.3-1.3.7-2.2.95-3.05.75-5.2 1.6-11.5 4.5-1.85.8-3.8 1.5-4.35 1.5-.55 0-1.25.35-1.6.75-.35.4-1 .75-1.45.75-.45 0-1.05.2-1.3.45-.3.25-2.95 1.7-5.95 3.3-3 1.55-6.3 3.4-7.35 4.05-1.05.65-2.05 1.2-2.15 1.2-.15 0-1.7 1-3.5 2.25-1.85 1.25-3.5 2.25-3.7 2.25-.25 0-.9.45-1.5 1.05-.6.55-2.45 1.95-4.05 3.1-5.85 4.15-10.4 7.85-14.5 11.8-2.3 2.25-4.35 4.05-4.55 4.05-.65 0-11.3 12.9-15.05 18.25-1.15 1.65-2.55 3.3-3.05 3.65-.5.35-.9.9-.9 1.15 0 .25-1.65 3.25-3.65 6.6-3.65 6.1-7.35 13.3-7.35 14.3 0 .3-.2.55-.5.55-.25 0-.5.4-.5.9 0 .5-.35 1.35-.75 1.9-.4.5-.75 1.3-.75 1.7 0 .4-.45 1.6-1 2.65-.55 1-1 2.15-1 2.55 0 .4-.3 1.35-.7 2.15-1.55 3.1-2.3 5.25-2.3 6.55 0 .75-.35 1.8-.75 2.3-.4.55-.75 1.7-.75 2.55 0 .85-.2 1.75-.45 2-.5.55-1.3 3.35-2.15 7.5-.25 1.4-.75 3.65-1.15 5-1.3 4.95-1.85 7.85-2.25 12.15-.25 2.4-.7 6.85-1 9.85-.65 6.05-.4 18.5.45 24 .55 3.5 1.35 8.55 2 12.75.2 1.25.65 2.75.95 3.35.35.6.6 1.85.6 2.85 0 .95.25 2.35.55 3.15.3.75.75 2.2.95 3.15.25.95.65 2.45.9 3.25.3.85.9 2.85 1.35 4.5.45 1.65 1.15 3.75 1.55 4.65.4.9.7 2.05.7 2.5 0 .5.35 1.35.75 1.9.4.5.75 1.5.75 2.1 0 .65.3 1.8.7 2.5.35.75 2.2 4.45 4.1 8.25 4.4 8.8 5.6 11.1 7.45 13.8.85 1.2 2 2.95 2.55 3.9.6 1 1.3 1.9 1.55 2.1.25.15 1.3 1.55 2.3 3.05 1 1.5 2.95 4.1 4.3 5.75 1.4 1.65 3.75 4.6 5.2 6.5 2.9 3.75 18.45 19.25 19.3 19.25.3 0 1.4.75 2.4 1.7 1.05.9 2.8 2.25 3.9 3 1.1.75 3.35 2.35 5 3.55 7.75 5.75 24.25 14.5 33 17.5 2.2.8 6.45 2.3 9.5 3.35 3 1.05 6.1 1.9 6.9 1.9.8 0 1.9.25 2.45.55.55.3 3.55.85 6.6 1.25 10 1.25 11.55 1.5 12.65 2.1.6.35 2.95.6 5.25.65 5.55 0 12.55 1.8 12.8 3.2.1.55.55 1.75.95 2.65.65 1.35.7 3.7.5 15-.2 9.6-.45 14-1 15.6l-.7 2.25-5.45.05c-3 .05-6.9-.15-8.7-.4z"/>
        <!-- Inner shape with Azure accent -->
        <path fill="#328aca" d="M320.5 328.45c-1.5-.2-4.2-.55-6-.7-1.8-.2-4.1-.65-5.15-1.05-1-.4-2.65-.7-3.65-.7-.95 0-2.55-.35-3.55-.75-.95-.4-2.2-.75-2.75-.75-.55 0-1.3-.35-1.7-.75-.45-.45-1.7-.75-2.95-.75-2.05 0-4.1-.65-7.35-2.3-.7-.4-1.55-.7-1.9-.7-1.25 0-12.1-5.2-15.5-7.45-1.5-1-3.45-2.15-4.35-2.5-.85-.35-1.95-1.05-2.45-1.6-.45-.5-1.1-.95-1.4-.95-.3 0-1.7-1.1-3.1-2.4-1.4-1.3-3.85-3.35-5.4-4.6-3.4-2.65-12.1-11.6-14.75-15.2-1.05-1.4-2.3-2.85-2.75-3.25-.75-.65-3.75-4.75-5.05-6.95-.25-.5-1-1.55-1.6-2.4-.6-.85-1.35-2.1-1.65-2.75-.3-.65-1-2-1.55-2.95-1.95-3.3-3.65-6.8-5.2-11-.45-1.25-1.15-3-1.55-3.9-.4-.9-.7-2.1-.7-2.6 0-.55-.2-1.4-.5-1.9-.8-1.35-2.05-5.15-2.45-7.35-.2-1.1-.65-2.5-.95-3.1-.35-.6-.6-2-.6-3.1 0-1.1-.25-2.6-.55-3.4-.35-.75-.75-3.85-.95-6.9-.2-3-.65-7.35-1-9.55-.6-3.55-.6-4.7.15-9.25.45-2.85.85-7.15.85-9.5 0-2.55.3-5.2.75-6.45.4-1.15.75-2.85.75-3.7 0-.85.35-2 .75-2.5.4-.55.75-2.05.75-3.3 0-1.6.45-3.25 1.5-5.25.85-1.6 1.5-3.6 1.5-4.4 0-.8.3-2.05.7-2.75.85-1.65 2.45-5.3 3.35-7.6.35-.95 1.65-3.4 2.8-5.4 1.2-2 2.15-3.75 2.15-3.85 0-.15.7-1.2 1.5-2.35.85-1.1 1.5-2.2 1.5-2.4 0-.8 3.5-5.55 8.3-11.3 5.6-6.8 12.65-13.9 16.7-16.9 1.55-1.15 3.45-2.7 4.25-3.45.85-.8 2.3-1.85 3.25-2.4.95-.55 2.75-1.65 4-2.45 2.45-1.6 4-2.45 11.85-6.4 2.8-1.45 5.45-2.6 5.85-2.6.45 0 2.25-.7 3.95-1.5 1.75-.85 3.5-1.5 3.85-1.5.6 0 4.3-1.1 7.5-2.3.95-.35 2.95-.75 4.45-.9 1.5-.15 2.95-.5 3.25-.8.25-.25 1.9-.5 3.65-.5 1.9 0 3.95-.35 5.05-.85 1.55-.7 3.8-.8 14.1-.85 9.35 0 12.55.15 13.45.65.65.35 2.35.75 3.75.85 4.3.35 10.85 1.7 15.4 3.25 2.4.8 4.65 1.45 5.05 1.45 1.55 0 19.8 8.6 23.3 10.95.7.5 3.95 2.65 7.25 4.75 8.6 5.6 19.05 15.75 26.35 25.55 2.45 3.3 4.7 6.35 5.05 6.8.95 1.2 7.45 13.05 8.15 14.95.2.4.65 1.45 1 2.25.4.85.85 2.1 1.05 2.9.15.75.5 1.5.75 1.65.25.15.45.85.45 1.6 0 .75.35 2 .75 2.8.45.8 1 2.4 1.3 3.5.25 1.15.85 3.4 1.25 5.05.4 1.65 1.05 4.35 1.4 6 .4 1.65 1.1 4.7 1.55 6.75.5 2.05 1 6.15 1.1 9.05.2 4.4.1 5.45-.55 6.1-.75.7-4 .8-32.7.75-17.5 0-42.85.1-56.35.3-25.95.3-28.8.55-29.2 2.6-.1.5-.4 1.1-.7 1.3-.4.25-.6 16.3-.65 57.45l-.05 57.1-1.15.95c-1.15.95-2.45 1-7 .35z"/>
    </g>
</svg>
